<?xml version="1.0" encoding="UTF-8"?><svg version="1.1" id="Layer_1" xmlns="http://www.w3.org/2000/svg" xmlns:xlink="http://www.w3.org/1999/xlink" x="0px" y="0px" viewBox="0 0 1000 1000" style="enable-background:new 0 0 1000 1000;" xml:space="preserve" width="1000px" height="1000px">

<g>
	<g id="Layer_1_1_">
		<path d="M717.4,426.8h51.4c2.2,0,4,1.8,4,4v91c0,2.2-1.8,4-4,4h-51.4c-2.2,0-4-1.8-4-4v-91
			C713.4,428.6,715.2,426.8,717.4,426.8z" style="fill:#F8F8F8;"/>
		<path d="M729.6,509.7l17.3,16.2h21.9c2.2,0,4-1.8,4-4v-30.2l-15.8-9.3L729.6,509.7z" style="opacity:0.81;fill:#C1C1C1;enable-background:new    ;"/>
		<path d="M732.5,442.7h20.6c2.2,0,4,1.8,4,4v20.6c0,2.2-1.8,4-4,4h-20.6c-2.2,0-4-1.8-4-4v-20.6
			C728.5,444.5,730.3,442.7,732.5,442.7z" style="opacity:0.85;fill:#DDDDDD;enable-background:new    ;"/>
		<path d="M735.5,482.3h20.6c2.2,0,4,1.8,4,4v20.6c0,2.2-1.8,4-4,4h-20.6c-2.2,0-4-1.8-4-4v-20.6
			C731.5,484.1,733.3,482.3,735.5,482.3z" style="fill:#030303;"/>
		<g>
			<path d="M770.6,582.6H621c-2.2,0-4-1.8-4-4s1.8-4,4-4h149.7c4.3,0,7.8-3.5,7.8-7.8s-3.5-7.8-7.8-7.8H757
				c-8.7,0-15.8-7.1-15.8-15.8V502c0-2.2,1.8-4,4-4s4,1.8,4,4v41.1c0,4.3,3.5,7.8,7.8,7.8h13.7c8.7,0,15.8,7.1,15.8,15.8
				S779.4,582.6,770.6,582.6z"/>
		</g>
		<path d="M236.1,583h552.8c6,0,10.9,4.9,10.9,10.9v24.5c0,6-4.9,10.9-10.9,10.9H236.1c-6,0-10.9-4.9-10.9-10.9v-24.5
			C225.2,587.9,230.1,583,236.1,583z" style="fill:#D17F4D;"/>
		<defs>
			<filter id="Adobe_OpacityMaskFilter" filterUnits="userSpaceOnUse" x="225.2" y="583" width="404" height="46.2">
				<feColorMatrix type="matrix" values="1 0 0 0 0  0 1 0 0 0  0 0 1 0 0  0 0 0 1 0"/>
			</filter>
		</defs>
		<mask maskUnits="userSpaceOnUse" x="225.2" y="583" width="404" height="46.2" id="mask_1_">
			<path d="M236.1,583h552.8c6,0,10.9,4.9,10.9,10.9v24.5c0,6-4.9,10.9-10.9,10.9H236.1c-6,0-10.9-4.9-10.9-10.9v-24.5
				C225.2,587.9,230.1,583,236.1,583z" style="fill:#D17F4D;filter:url(#Adobe_OpacityMaskFilter);"/>
		</mask>
		<g style="mask:url(#mask_1_);">
			<g>
				<path d="M629.2,583c-0.3,0.2-0.7,0.3-1.1,0.3c-29.6,3.4-57.8,19.1-66.9,37.4c-1.4,2.9-2.4,5.7-2.7,8.5h-6.1
					c0.4-3.7,1.6-7.5,3.4-11.2c7.3-14.6,25.4-27.7,46.9-35H629.2z" style="fill:#C57442;"/>
			</g>
			<g>
				<path d="M519.3,629.3h-6.8c-1.4-2.3-3.7-4.9-7-6.5c-4.5-2.2-8.7-1.6-11.9-1.2c-7.1,1-12.7,4.4-16.5,7.7h-7.4
					c0-0.8,0.3-1.5,0.9-2.1c4.5-4.5,11.9-10.1,22.3-11.5c3.4-0.5,9.2-1.2,15.3,1.8C514.3,620.4,517.7,625.6,519.3,629.3z" style="fill:#C57442;"/>
			</g>
			<g>
				<path d="M326.7,583c-15.8,12.3-36.2,14.1-52.4,9.3c-9.1-2.7-17.1-6-23.7-9.3h-12.6c0.5,0.3,1,0.6,1.4,0.8
					c6.9,4,18.4,9.8,33.2,14.2c5.9,1.8,12.4,2.7,18.9,2.7c15.5,0,31.8-5.3,44.3-17.8H326.7z" style="fill:#C57442;"/>
			</g>
			<g>
				<path d="M261.3,629.3h-6c0.3-6-1.4-12-5.2-16.8c-5.9-7.5-15.6-10.8-24.9-9.1v-6.1c11.1-1.6,22.6,2.5,29.6,11.5
					C259.5,614.6,261.6,621.9,261.3,629.3z" style="fill:#C57442;"/>
			</g>
			<g>
				<path d="M243.2,629.3h-6.4c1.2-2.9,1.6-5.8,1.1-8.4c-0.4-1.9-1.1-2.9-1.7-3.3c-1.5-0.9-6.1-0.2-10.5,4.2
					c-0.3-1-0.5-2.2-0.5-3.3v-3.9c5-3.4,10.5-4.3,14.2-2c2.2,1.4,3.8,4,4.5,7.3C244.4,622.7,244.2,626,243.2,629.3z" style="fill:#C57442;"/>
			</g>
			<g>
				<path d="M296.2,607.5c-2.2-1.6-6.8-2.2-11.2-2.2c-4,0-7.9,0.5-9.6,1.1c-4.5,1.6-10.7,6.3-9.7,12.9
					c0.9,5.6,6.9,9.2,12.2,9.2c0.5,0,1.1,0,1.6-0.1c6.8-1,18.3-4.5,18.6-17.2C298.2,610.4,298,608.8,296.2,607.5z M278.8,622.5
					c-2.8,0.4-6.6-1.5-7.1-4.1c-0.4-2.7,3.1-5.4,5.7-6.3c2.7-0.9,11.9-1,14.7,0C291.9,615,290.4,620.8,278.8,622.5z" style="fill:#C57442;"/>
			</g>
			<g>
				<path d="M463.1,629.3h-8.3c-10.3-10.2-22.2-18.2-35.3-23.8c-20.4-8.6-42.6-10.5-62.7-5.2
					c-25.6,6.7-38.5,18.5-45.6,29h-7.1c7.1-12.2,21-26.8,51.2-34.8c21.3-5.6,45-3.6,66.6,5.5C437.3,606.6,451.3,616.5,463.1,629.3z" style="fill:#C57442;"/>
			</g>
			<g>
				<path d="M347.8,618.4c1.2,1.1,1.3,3,0.1,4.2c-2.1,2.3-3.4,4.5-4,6.6h-6.2c0.8-3.7,2.8-7.5,5.9-10.8
					C344.7,617.3,346.6,617.3,347.8,618.4z" style="fill:#C57442;"/>
				<path d="M413.7,629.3h-8c-6.5-7.2-14.6-12.7-21.5-13.2c-4.2-0.3-5.4,1.9-5.8,2.6c-2.3,3.9-4.6,7.5-6.9,10.6h-7.7
					c3-3.4,6.2-7.9,9.4-13.5c2.3-3.9,6.3-5.9,11.4-5.6C393.1,610.6,405,618,413.7,629.3z" style="fill:#C57442;"/>
			</g>
			<g>
				<path d="M629.2,629.3h-6.5c-6.5-15.4-16.6-22.7-23.7-21.7c-4.6,0.6-10,4.6-10.6,9.5c-0.3,2.5,0.3,7.2,1.7,12.2h-6.2
					c-1.3-5.4-1.8-10.4-1.5-13c1.1-8,8.9-13.8,15.8-14.7C609.7,600,622.3,611.5,629.2,629.3z" style="fill:#C57442;"/>
			</g>
			<g>
				<path d="M519.3,583c-6,14.9-18.7,25.3-32.9,25.5h-0.6c-12.2,0-27.1-7.4-31-21.3c-0.4-1.5-0.7-2.9-0.8-4.3h6
					c0.1,0.9,0.3,1.8,0.5,2.6c3.3,11.9,17,17,25.7,16.9c11-0.2,21.1-8,26.5-19.5H519.3z" style="fill:#C57442;"/>
			</g>
			<g>
				<path d="M537.8,629.3h-6.9c-8-15.1-7.7-30.9,0.7-46.2h6.9C528.9,598.5,528.6,614.2,537.8,629.3z" style="fill:#C57442;"/>
			</g>
			<g>
				<path d="M577.2,583c-12.6,5.4-21.8,13.8-26.8,19.3c-0.6,0.7-1.4,1-2.2,1c-0.7,0-1.4-0.3-2-0.8
					c-1.2-1.1-1.3-3-0.2-4.2c3.9-4.3,10.1-10.2,18.3-15.3H577.2z" style="fill:#C57442;"/>
			</g>
			<g>
				<path d="M610.2,619.8c-1.7-3.4-4.1-5.4-6.6-5.4h-0.2c-2,0.1-4,1.4-5.3,3.6c-1.5,2.4-1.8,5.2-0.8,7.6
					c0.7,1.6,1.9,2.8,3.4,3.7h8.6c0.4-0.2,0.7-0.5,1-0.9C611.9,626.4,611.8,623.2,610.2,619.8z M603.8,624.2c-0.6-0.2-1-0.5-1.1-0.9
					c-0.4-0.9,0.3-2.1,0.8-2.6c0.8,0.7,1.8,2.6,1.9,3.8C605,624.4,604.5,624.4,603.8,624.2z" style="fill:#C57442;"/>
			</g>
			<g>
				<path d="M397.4,629c-0.6-1.8-1.5-3.7-2.8-5.2c-1.3-1.5-2.9-2.6-4.8-2.9c-2.8-0.3-6.2,1.4-8.5,4.4
					c-1,1.2-1.7,2.6-2.2,4h6.7c0,0,0.1-0.1,0.1-0.1c1.3-1.6,2.7-2.2,3.1-2.2h0c0.3,0.1,1.2,0.8,2,2.4h6.4
					C397.5,629.2,397.5,629.1,397.4,629z" style="fill:#C57442;"/>
			</g>
		</g>
		<path d="M399.8,358.1h177.9c5.5,0,10,4.5,10,10v60.8l0,0H389.8l0,0v-60.8C389.8,362.5,394.3,358.1,399.8,358.1z" style="fill:#B3B3B3;"/>
		<path d="M393.1,358.1H571c5.5,0,10,4.5,10,10v60.8l0,0H383.1l0,0v-60.8C383.1,362.5,387.6,358.1,393.1,358.1z" style="fill:#D7D7D7;"/>
		<polygon points="581,410.7 562.9,398.2 562.9,441 581,441 		" style="fill:#C1C1C1;"/>
		<path d="M421.8,321.9h126c3.3,0,6,2.7,6,6v100.9l0,0h-139l0,0v-99.9C414.8,325,418,321.9,421.8,321.9z" style="fill:#E7E7E7;"/>
		<path d="M416,321.9h127.9c3.3,0,6,2.7,6,6v100.9l0,0H409l0,0v-99.9C409,325,412.2,321.9,416,321.9z" style="fill:#F8F8F8;"/>
		<path d="M380.9,398.2h17.4l0,0V441l0,0h-29.4l0,0v-30.8C368.9,403.5,374.3,398.2,380.9,398.2z" style="fill:#DFE1E0;"/>
		<path d="M391.1,398.2h17.4l0,0V441l0,0h-29.4l0,0v-30.8C379.1,403.5,384.5,398.2,391.1,398.2z" style="fill:#B3B3B3;"/>
		<path d="M535.3,398.2h17.4l0,0V441l0,0h-29.4l0,0v-30.8C523.3,403.5,528.7,398.2,535.3,398.2
			C535.3,398.2,535.3,398.2,535.3,398.2z" style="fill:#DFE1E0;"/>
		<path d="M545.5,398.2h17.4l0,0V441l0,0h-29.4l0,0v-30.8C533.5,403.5,538.9,398.2,545.5,398.2z" style="fill:#B3B3B3;"/>
		<polygon points="408.5,398.2 470.3,441 426.6,441 408.5,441 		" style="fill:#C1C1C1;"/>
		<rect x="297.8" y="524.2" width="380.8" height="33.5" style="fill:#030303;"/>
		<rect x="300.6" y="483.4" width="268.5" height="81.4" style="fill:#272727;"/>
		<polygon points="529.3,580.4 363.5,580.4 363.5,514.3 517.4,514.3 517.4,550.1 529.3,557.5 		"/>
		<path d="M523.1,500.1H391.6c-10.8,0-19.5,8.7-19.5,19.5v39H390v-33.9c0-4.8,3.9-8.7,8.7-8.7c0,0,0,0,0,0h16.9
			c2.7,0,4.9,2.2,4.9,4.9v2.3h19.4c1.3,0,2.3-1.1,2.3-2.3c0,0,0,0,0,0l0,0c0-2.7,2.2-4.9,4.9-4.9h20.7c2.7,0,4.9,2.2,4.9,4.9v2.3
			H492c1.3,0,2.3-1,2.3-2.3l0,0c0-2.7,2.2-4.9,4.9-4.9h16.9c4.8,0,8.7,3.9,8.7,8.7c0,0,0,0,0,0v10h17.9v-15.1
			C542.6,508.8,533.9,500.1,523.1,500.1C523.1,500.1,523.1,500.1,523.1,500.1z" style="fill:#212121;"/>
		<path d="M507.3,500.1H375.8c-10.8,0-19.5,8.7-19.5,19.5v39h17.9v-33.9c0-4.8,3.9-8.7,8.7-8.7c0,0,0,0,0,0h16.9
			c2.7,0,4.9,2.2,4.9,4.9l0,0c0,1.3,1,2.3,2.3,2.3c0,0,0,0,0,0h17c1.3,0,2.3-1.1,2.3-2.3l0,0l0,0c0-2.7,2.2-4.9,4.9-4.9h20.7
			c2.7,0,4.9,2.2,4.9,4.9l0,0c0,1.3,1,2.3,2.3,2.3c0,0,0,0,0,0h17c1.3,0,2.3-1.1,2.3-2.3l0,0l0,0c0-2.7,2.2-4.9,4.9-4.9h16.9
			c4.8,0,8.7,3.9,8.7,8.7v10h17.9v-15.1C526.8,508.8,518,500.1,507.3,500.1C507.3,500.1,507.3,500.1,507.3,500.1z" style="fill:#4C4C4C;"/>
		<path d="M506,554.6H346.8V583h198.1C528.9,583,510.8,571.7,506,554.6z" style="fill:#272727;"/>
		<polygon points="503.7,558.8 505.9,554.6 481.3,554.6 478.7,560.4 		" style="fill:#212121;"/>
		<path d="M503.7,558.8H345.7V583h198.1C527.8,583,508.5,573.4,503.7,558.8z" style="fill:#4C4C4C;"/>
		<path d="M488.4,548.2H371.5c-13.2,0-24,10.7-24,24c0,0,0,0,0,0v18.6l0,0v17.8c0,5,4.1,9.1,9.1,9.1l0,0h114.1
			c9.7,0,17.6-7.9,17.6-17.6v-23c0-13.2,10.7-24,24-24c0,0,0,0,0,0h7.7v-4.9H488.4z" style="opacity:0.2;fill:#020202;enable-background:new    ;"/>
		<path d="M652.2,428.9h-328c-19.4,0-35.2,15.8-35.2,35.2c0,0,0,0,0,0v73.7h56.9v-19.8c0-9.7,7.9-17.6,17.6-17.6l0,0
			h127.7c9.7,0,17.6,7.9,17.6,17.6l0,0v19.8h178.6v-73.7C687.4,444.7,671.6,428.9,652.2,428.9z" style="fill:#3E3E3E;"/>
		<path d="M687.4,537.9v-73.7c0-19.4-15.8-35.2-35.2-35.2l0,0h-50.6c-19.4,0-35.2,15.8-35.2,35.2l0,0v73.7H687.4z" style="fill:#2C2C2C;"/>
		<path d="M679.7,537.9v-73.7c0-13.4-10.8-24.2-24.2-24.2h-50.6c-13.4,0-24.2,10.8-24.2,24.2v73.7H679.7z" style="fill:#3E3E3E;"/>
		<path d="M676.4,537.9v-73.7c0-13.4-10.8-24.2-24.2-24.2h-50.6c-13.4,0-24.2,10.8-24.2,24.2v73.7H676.4z" style="fill:#121212;"/>
		<path d="M636.7,583h152.1c6,0,10.9,4.9,10.9,10.9v24.5c0,6-4.9,10.9-10.9,10.9H636.7c-6,0-10.9-4.9-10.9-10.9v-24.5
			C625.9,587.9,630.7,583,636.7,583z" style="fill:#A55137;"/>
		<rect x="407.9" y="532.2" width="14.9" height="8.3" style="fill:#212121;"/>
		<rect x="468.9" y="532.2" width="14.9" height="8.3" style="fill:#212121;"/>
		<rect x="394.7" y="532.2" width="14.9" height="8.3" style="fill:#4C4C4C;"/>
		<rect x="455.6" y="532.2" width="14.9" height="5.7" style="fill:#4C4C4C;"/>
		<rect x="409.6" y="537.4" width="60.9" height="3.1" style="fill:#4C4C4C;"/>
		<path d="M548,428.9H321.7v3.1c0,18.6,15.1,33.7,33.7,33.7l0,0h158.8c18.6,0,33.7-15.1,33.7-33.7c0,0,0,0,0,0
			L548,428.9z" style="fill:#4C4C4C;"/>
		<path d="M355.4,458.1h158.8c16.9,0,31.1-12.5,33.4-29.2H322C324.3,445.6,338.5,458.1,355.4,458.1z" style="fill:#0E0E0E;"/>
		<path d="M359.8,445.3h9.1c1.2,0,2.2,1,2.2,2.2v0.4c0,1.2-1,2.2-2.2,2.2h-9.1c-1.2,0-2.2-1-2.2-2.2v-0.4
			C357.6,446.3,358.6,445.3,359.8,445.3z" style="fill:#17E09C;"/>
		<path d="M376.7,445.3h2.3c1.2,0,2.2,1,2.2,2.2v0.4c0,1.2-1,2.2-2.2,2.2h-2.3c-1.2,0-2.2-1-2.2-2.2v-0.4
			C374.5,446.3,375.5,445.3,376.7,445.3z" style="fill:#932B3A;"/>
		<path d="M433.6,436.2h75.4c2.8,0,5.1,2.3,5.1,5.1v1c0,2.8-2.3,5.1-5.1,5.1h-75.4c-2.8,0-5.1-2.3-5.1-5.1v-1
			C428.6,438.5,430.8,436.2,433.6,436.2z" style="fill:#1F1F1F;"/>
		<path d="M433.6,436.2H449c2.8,0,5.1,2.3,5.1,5.1v1c0,2.8-2.3,5.1-5.1,5.1h-15.3c-2.8,0-5.1-2.3-5.1-5.1v-1
			C428.6,438.5,430.8,436.2,433.6,436.2z" style="fill:#313131;"/>
		<path d="M382.6,458.1h71.3c1.9,0,3.5,1.6,3.5,3.5v0.7c0,1.9-1.6,3.5-3.5,3.5h-71.3c-1.9,0-3.5-1.6-3.5-3.5v-0.7
			C379.1,459.7,380.7,458.1,382.6,458.1z" style="fill:#5A5A5A;"/>
		<path d="M392.6,458.1h17.6c1.9,0,3.5,1.6,3.5,3.5v0.7c0,1.9-1.6,3.5-3.5,3.5h-17.6c-1.9,0-3.5-1.6-3.5-3.5v-0.7
			C389.1,459.7,390.7,458.1,392.6,458.1z" style="fill:#676767;"/>
		<path d="M345.9,543.4H289v4.4c0,19.4,15.8,35.2,35.2,35.2l0,0h21.6L345.9,543.4z" style="fill:#3E3E3E;"/>
		<path d="M298.7,546.7h37.5c1.9,0,3.5,1.6,3.5,3.5v0.7c0,1.9-1.6,3.5-3.5,3.5h-37.5c-1.9,0-3.5-1.6-3.5-3.5v-0.7
			C295.2,548.3,296.7,546.7,298.7,546.7z" style="fill:#4D4D4D;"/>
		<circle cx="523.3" cy="442.2" r="3.7" style="fill:#BA8F1C;"/>
		<path d="M477.4,540.5H360.5c-13.2,0-24,10.7-24,24l0,0V583h71.4V610h51.8c9.7,0,17.6-7.9,17.6-17.6v-23
			c0-13.2,10.7-24,24-24h16.2v-4.9H477.4z" style="fill:#F8F8F8;"/>
		<path d="M363.7,547.8h33.1c1.4,0,2.5,1.1,2.5,2.5v0.5c0,1.4-1.1,2.5-2.5,2.5h-33.1c-1.4,0-2.5-1.1-2.5-2.5v-0.5
			C361.2,548.9,362.3,547.8,363.7,547.8z" style="opacity:0.85;fill:#DDDDDD;enable-background:new    ;"/>
		<path d="M404.7,547.8h16.4c1.4,0,2.5,1.1,2.5,2.5v0.5c0,1.4-1.1,2.5-2.5,2.5h-16.4c-1.4,0-2.5-1.1-2.5-2.5v-0.5
			C402.2,548.9,403.3,547.8,404.7,547.8z" style="opacity:0.85;fill:#DDDDDD;enable-background:new    ;"/>
		<path d="M433.3,547.8h16.4c1.4,0,2.5,1.1,2.5,2.5v0.5c0,1.4-1.1,2.5-2.5,2.5h-16.4c-1.4,0-2.5-1.1-2.5-2.5v-0.5
			C430.8,548.9,431.9,547.8,433.3,547.8z" style="opacity:0.85;fill:#DDDDDD;enable-background:new    ;"/>
		<path d="M357.6,559.4h49.2c1.4,0,2.5,1.1,2.5,2.5v0.5c0,1.4-1.1,2.5-2.5,2.5h-49.2c-1.4,0-2.5-1.1-2.5-2.5v-0.5
			C355.1,560.5,356.2,559.4,357.6,559.4z" style="opacity:0.85;fill:#DDDDDD;enable-background:new    ;"/>
		<path d="M422,559.4h21.4c1.4,0,2.5,1.1,2.5,2.5v0.5c0,1.4-1.1,2.5-2.5,2.5H422c-1.4,0-2.5-1.1-2.5-2.5v-0.5
			C419.5,560.5,420.7,559.4,422,559.4z" style="opacity:0.85;fill:#DDDDDD;enable-background:new    ;"/>
		<path d="M445.5,592.3v-4.9c0-3.9-3.2-7-7-7l0,0H328.8c-3.9,0-7,3.2-7,7l0,0v4.9c0,9.7,7.9,17.6,17.6,17.6h123.3v0
			C453.1,609.7,445.5,601.9,445.5,592.3z" style="fill:#E7E7E7;"/>
		<defs>
			<filter id="Adobe_OpacityMaskFilter_1_" filterUnits="userSpaceOnUse" x="616" y="583" width="183.7" height="46.2">
				<feColorMatrix type="matrix" values="1 0 0 0 0  0 1 0 0 0  0 0 1 0 0  0 0 0 1 0"/>
			</filter>
		</defs>
		<mask maskUnits="userSpaceOnUse" x="616" y="583" width="183.7" height="46.2" id="mask-2_1_">
			<path d="M636.7,583h152.1c6,0,10.9,4.9,10.9,10.9v24.5c0,6-4.9,10.9-10.9,10.9H636.7c-6,0-10.9-4.9-10.9-10.9v-24.5
				C625.9,587.9,630.7,583,636.7,583z" style="fill:#A55137;filter:url(#Adobe_OpacityMaskFilter_1_);"/>
		</mask>
		<g style="mask:url(#mask-2_1_);">
			<g>
				<path d="M765.4,629.3h-6.3c2.2-6.8,1.7-13.6-2-18.3c-8.4-10.6-29.3-1.7-30.2-1.3c-10,4.3-15.9,12.6-19.3,19.6h-6.6
					c3.6-8.4,10.5-19.4,23.4-25.1c2.6-1.2,26.2-10.9,37.3,3.1C766.4,613.1,767.5,621.2,765.4,629.3z" style="fill:#9D472E;"/>
			</g>
			<g>
				<path d="M747.4,629.3h-6.6c2.4-4.5,2.2-7.3,1.8-7.7c-0.7-0.6-5,0-8.7,2.6c-2,1.3-3.5,3.2-4.6,5.2h-6.6
					c1.5-3.9,4-7.5,7.8-10.1c4.2-2.8,12.3-5.9,16.3-1.8C749.4,619.8,749.5,624.1,747.4,629.3z" style="fill:#9D472E;"/>
			</g>
			<g>
				<path d="M756.5,583c-4.5,3-9.1,5.8-14,8.2c-5.6,2.8-14.3,6.7-22,9.1c-5.2,1.6-9.3,2.4-12.5,2.4
					c-3.5,0-5.9-1-7.3-2.9c-2.5-3.5-1.2-8.8,4.3-16.9h7.4c-6.5,8.6-7.4,12.5-6.9,13.3c1.6,1.9,16.2-1.3,34.4-10.5
					c1.8-0.9,3.6-1.9,5.4-2.9H756.5z" style="fill:#9D472E;"/>
			</g>
			<g>
				<path d="M795.2,627.2c-1.8,1.3-4,2.1-6.4,2.1h-1.3c-5.5-4-10.9-9.6-14.6-17.4c-2.3-4.9-6.6-13.9-3-22.9
					c0.9-2.2,2.1-4.2,3.7-5.9h9.4c-3.5,2.1-6.2,4.8-7.5,8.1c-2.6,6.6,0.8,13.8,2.8,18.2C782.4,617.9,789.1,623.6,795.2,627.2z" style="fill:#9D472E;"/>
			</g>
			<g>
				<path d="M793.9,597.3c-0.2,0.2-0.6,1-0.5,2.5c0.2,3,1.9,6.2,4.7,8.5c1.3,1.1,1.4,3,0.3,4.2
					c-0.6,0.7-1.4,1.1-2.3,1.1c-0.7,0-1.4-0.2-1.9-0.7c-4-3.4-6.6-8.2-6.8-12.8c-0.1-2.9,0.6-5.3,2.2-6.9c1.5-1.6,3.9-2.4,6.7-2.4
					h0.1c1,0,2,0.1,3,0.3c0.2,0.9,0.4,1.9,0.4,2.9v3.5c-1.1-0.4-2.3-0.7-3.4-0.7h0C794.8,596.7,794.1,597.1,793.9,597.3z" style="fill:#9D472E;"/>
			</g>
			<g>
				<path d="M687.2,629.3h-6c1.7-10.9-1.8-18.5-5.7-19.9c-3.7-1.3-10.2,1.6-12.4,6.8c-1.1,2.6-1,5.8,0.3,8.8
					c0.7,1.6,1.6,3,2.8,4.3h-7.4c-0.3-0.6-0.7-1.3-1-1.9c-1.9-4.5-2-9.4-0.3-13.5c3.2-7.7,12.9-12.6,19.9-10.1
					C685.8,606.7,688.6,618,687.2,629.3z" style="fill:#9D472E;"/>
			</g>
			<g>
				<path d="M648.2,629.3h-6.3c2.5-6,2.1-12.9-1.5-18c-4.3-6.1-12.6-9-20.7-7.2c-1.6,0.4-3.2-0.7-3.6-2.3
					c-0.4-1.6,0.7-3.2,2.3-3.6c10.5-2.3,21.3,1.5,27,9.6C649.6,614,650.4,622,648.2,629.3z" style="fill:#9D472E;"/>
			</g>
			<g>
				<path d="M697.9,583c-2,9-6.5,15.6-12.7,17.6c-1.5,0.5-3.1,0.7-4.8,0.7c-3.2,0-6.6-0.8-9.5-2.4
					c-3.3-1.8-5.6-4.4-6.4-7.4c-0.7-2.6-0.2-5.6,1.3-8.5h7.3c-2.3,2.6-3.2,5.2-2.8,7c0.3,1.3,1.6,2.6,3.5,3.6c3,1.6,6.8,2.1,9.6,1.3
					c4.1-1.3,6.9-5.9,8.4-11.9H697.9z" style="fill:#9D472E;"/>
			</g>
			<g>
				<path d="M707.2,607.2c-0.9-2.2-3.5-3.9-6.7-4.4c-0.6-0.1-1.3-0.2-1.9-0.2c-2.8,0-5.3,1-7.1,3c-2.1,2.4-2.8,5.6-2,9
					c0.7,3,2.5,5.3,4.7,6.1c0.7,0.2,1.3,0.3,1.9,0.3c3.5,0,6.7-3.1,7.8-4.1C705.1,615.7,708.9,611.2,707.2,607.2z M699.4,612.9
					c-1.4,1.4-2.6,2-3.2,2.1c-0.3-0.3-0.9-1.2-1-2.4c-0.1-0.7-0.1-2,0.8-3c0.8-0.9,2-1.1,2.9-1c1.3,0.1,2.3,0.6,2.7,0.9
					C701.5,610.1,700.8,611.5,699.4,612.9z" style="fill:#9D472E;"/>
			</g>
			<g>
				<path d="M657.8,604c-0.5,0.3-1,0.4-1.5,0.4c-1.1,0-2.1-0.6-2.6-1.5c-2.5-4.4-8.9-14-20.5-19.9h11.1
					c7.9,6.1,12.5,13.2,14.6,16.9C659.8,601.4,659.3,603.2,657.8,604z" style="fill:#9D472E;"/>
			</g>
		</g>
		<path d="M508.7,543.4v4.4c0,19.4,15.8,35.2,35.2,35.2h108.2c19.4,0,35.2-15.8,35.2-35.2l0,0v-4.4L508.7,543.4z" style="fill:#3E3E3E;"/>
		<path d="M566.3,543.4v4.4c0,19.4,15.8,35.2,35.2,35.2l0,0h50.6c19.4,0,35.2-15.8,35.2-35.2v0v-4.4L566.3,543.4z" style="fill:#2C2C2C;"/>
		<path d="M580.6,543.4v4.4c0,13.4,10.8,24.2,24.2,24.2h50.6c13.4,0,24.2-10.8,24.2-24.2v-4.4L580.6,543.4z" style="fill:#3E3E3E;"/>
		<path d="M577.3,543.4v4.4c0,13.4,10.8,24.2,24.2,24.2h50.6c13.4,0,24.2-10.8,24.2-24.2v-4.4L577.3,543.4z" style="fill:#121212;"/>
		<path d="M518,546.7h37.5c1.9,0,3.5,1.6,3.5,3.5v0.7c0,1.9-1.6,3.5-3.5,3.5H518c-1.9,0-3.5-1.6-3.5-3.5v-0.7
			C514.5,548.3,516,546.7,518,546.7z" style="fill:#4D4D4D;"/>
		<path d="M422,476.3h12.7c1.9,0,3.4,1.5,3.4,3.4v9.8c0,1.9-1.5,3.4-3.4,3.4H422c-1.9,0-3.4-1.5-3.4-3.4v-9.8
			C418.7,477.8,420.2,476.3,422,476.3z" style="fill:#0E0E0E;"/>
		<path d="M418.7,476.3h12.7c1.9,0,3.4,1.5,3.4,3.4v9.8c0,1.9-1.5,3.4-3.4,3.4h-12.7c-1.9,0-3.4-1.5-3.4-3.4v-9.8
			C415.4,477.8,416.9,476.3,418.7,476.3z" style="fill:#B3B3B3;"/>
		<g style="opacity:0.54;">
			<path d="M736.3,459h3.4c0.5,0,0.8,0.4,0.8,0.8v1.4c0,0.5-0.4,0.8-0.8,0.8h-3.4c-0.5,0-0.8-0.4-0.8-0.8v-1.4
				C735.5,459.3,735.9,459,736.3,459z" style="fill:#0E0E0E;"/>
			<path d="M745.8,459h3.4c0.5,0,0.8,0.4,0.8,0.8v1.4c0,0.5-0.4,0.8-0.8,0.8h-3.4c-0.5,0-0.8-0.4-0.8-0.8v-1.4
				C745,459.3,745.3,459,745.8,459z" style="fill:#0E0E0E;"/>
		</g>
		<rect x="741.7" y="450.6" width="2.1" height="2.9" style="opacity:0.54;fill:#0E0E0E;enable-background:new    ;"/>
		<path d="M732.5,482.3h20.6c2.2,0,4,1.8,4,4v20.6c0,2.2-1.8,4-4,4h-20.6c-2.2,0-4-1.8-4-4v-20.6
			C728.5,484.1,730.3,482.3,732.5,482.3z" style="fill:#121212;"/>
	</g>
</g>
</svg>